<svg width="32" height="32" viewBox="0 0 32 32" fill="none" xmlns="http://www.w3.org/2000/svg">
<g clip-path="url(#clip0_16_5)">
<rect x="-3" y="9.33887" width="17.4498" height="22.1819" rx="8.72488" transform="rotate(-45 -3 9.33887)" fill="#FFA183"/>
<path d="M18.3 24H14.66L14.48 18.82L14.46 17.96C14.4333 17.16 14.42 16.5533 14.42 16.14C14.42 15.14 14.46 14.14 14.54 13.14L12.64 22.56H9.14L7.12 13.14C7.24 14.7 7.3 16.0733 7.3 17.26C7.3 17.94 7.29333 18.46 7.28 18.82L7.12 24H3.48L4.5 10.1H9.1L10.96 19.32L12.64 10.1H17.26L18.3 24ZM23.5613 10.1V24H19.8613V10.1H23.5613ZM31.6613 10.1L27.4813 16.3L32.0213 24H27.7813L23.6813 16.6L27.8013 10.1H31.6613Z" fill="#0B0B0B"/>
</g>
<defs>
<clipPath id="clip0_16_5">
<rect width="32" height="32" fill="white"/>
</clipPath>
</defs>
</svg>
