<svg width="35" height="35" viewBox="0 0 35 35" fill="none" xmlns="http://www.w3.org/2000/svg">
<g clip-path="url(#clip0_7_204)">
<path d="M29.1667 5.83333H5.83335C4.22919 5.83333 2.91669 7.14583 2.91669 8.75V26.25C2.91669 27.8542 4.22919 29.1667 5.83335 29.1667H29.1667C30.7709 29.1667 32.0834 27.8542 32.0834 26.25V8.75C32.0834 7.14583 30.7709 5.83333 29.1667 5.83333ZM29.1667 26.25H5.83335V8.75H29.1667V26.25ZM5.83335 0H29.1667V2.91667H5.83335V0ZM5.83335 32.0833H29.1667V35H5.83335V32.0833ZM17.5 17.5C19.5125 17.5 21.1459 15.8667 21.1459 13.8542C21.1459 11.8417 19.5125 10.2083 17.5 10.2083C15.4875 10.2083 13.8542 11.8417 13.8542 13.8542C13.8542 15.8667 15.4875 17.5 17.5 17.5ZM17.5 12.3958C18.3021 12.3958 18.9584 13.0521 18.9584 13.8542C18.9584 14.6562 18.3021 15.3125 17.5 15.3125C16.6979 15.3125 16.0417 14.6562 16.0417 13.8542C16.0417 13.0521 16.6979 12.3958 17.5 12.3958ZM24.7917 23.3188C24.7917 20.2708 19.9646 18.9583 17.5 18.9583C15.0354 18.9583 10.2084 20.2708 10.2084 23.3188V24.7917H24.7917V23.3188ZM12.8479 22.6042C13.7375 21.8458 15.8084 21.1458 17.5 21.1458C19.2063 21.1458 21.2771 21.8458 22.1667 22.6042H12.8479Z" fill="#FF7759"/>
</g>
<defs>
<clipPath id="clip0_7_204">
<rect width="35" height="35" fill="white"/>
</clipPath>
</defs>
</svg>
