<svg width="22" height="14" viewBox="0 0 22 14" fill="none" xmlns="http://www.w3.org/2000/svg">
<path d="M20 0.404341C18.89 0.121302 17.67 0 16.5 0C14.55 0 12.45 0.323472 11 1.21302C9.55 0.323472 7.45 0 5.5 0C3.55 0 1.45 0.323472 0 1.21302V13.0602C0 13.2624 0.25 13.4645 0.5 13.4645C0.6 13.4645 0.65 13.4241 0.75 13.4241C2.1 12.8985 4.05 12.5346 5.5 12.5346C7.45 12.5346 9.55 12.858 11 13.7476C12.35 13.0602 14.8 12.5346 16.5 12.5346C18.15 12.5346 19.85 12.7772 21.25 13.3837C21.35 13.4241 21.4 13.4241 21.5 13.4241C21.75 13.4241 22 13.2219 22 13.0198V1.21302C21.4 0.849115 20.75 0.606511 20 0.404341ZM20 11.3215C18.9 11.0385 17.7 10.9172 16.5 10.9172C14.8 10.9172 12.35 11.4428 11 12.1302V2.83038C12.35 2.14301 14.8 1.61736 16.5 1.61736C17.7 1.61736 18.9 1.73866 20 2.0217V11.3215Z" fill="#FF7759"/>
<path d="M16.5 4.85206C17.38 4.85206 18.23 4.92484 19 5.06232V3.83312C18.21 3.71182 17.36 3.63904 16.5 3.63904C14.8 3.63904 13.26 3.87356 12 4.31024V5.65265C13.13 5.1351 14.7 4.85206 16.5 4.85206Z" fill="#FF7759"/>
<path d="M12 6.46137V7.80378C13.13 7.28622 14.7 7.00318 16.5 7.00318C17.38 7.00318 18.23 7.07596 19 7.21344V5.98424C18.21 5.86294 17.36 5.79016 16.5 5.79016C14.8 5.79016 13.26 6.03277 12 6.46137Z" fill="#FF7759"/>
<path d="M16.5 7.94934C14.8 7.94934 13.26 8.18386 12 8.62055V9.96296C13.13 9.4454 14.7 9.16236 16.5 9.16236C17.38 9.16236 18.23 9.23514 19 9.37262V8.14342C18.21 8.01404 17.36 7.94934 16.5 7.94934Z" fill="#FF7759"/>
</svg>
