<svg width="35" height="35" viewBox="0 0 35 35" fill="none" xmlns="http://www.w3.org/2000/svg">
<g clip-path="url(#clip0_7_193)">
<path d="M32.0833 13.1249V10.2083H29.1667V13.1249H26.25V16.0416H29.1667V18.9583H32.0833V16.0416H35V13.1249H32.0833Z" fill="#FF7759"/>
<path d="M11.6666 17.4999C14.8896 17.4999 17.5 14.8895 17.5 11.6666C17.5 8.44367 14.8896 5.83325 11.6666 5.83325C8.44373 5.83325 5.83331 8.44367 5.83331 11.6666C5.83331 14.8895 8.44373 17.4999 11.6666 17.4999ZM11.6666 8.74992C13.2708 8.74992 14.5833 10.0624 14.5833 11.6666C14.5833 13.2708 13.2708 14.5833 11.6666 14.5833C10.0625 14.5833 8.74998 13.2708 8.74998 11.6666C8.74998 10.0624 10.0625 8.74992 11.6666 8.74992Z" fill="#FF7759"/>
<path d="M11.6667 18.9583C7.77292 18.9583 0 20.9124 0 24.7916V29.1666H23.3333V24.7916C23.3333 20.9124 15.5604 18.9583 11.6667 18.9583ZM20.4167 26.2499H2.91667V24.8062C3.20833 23.7562 7.72917 21.8749 11.6667 21.8749C15.6042 21.8749 20.125 23.7562 20.4167 24.7916V26.2499Z" fill="#FF7759"/>
<path d="M18.2438 5.90625C19.5854 7.45208 20.4167 9.46458 20.4167 11.6667C20.4167 13.8688 19.5854 15.8812 18.2438 17.4271C21.1021 17.0625 23.3334 14.6417 23.3334 11.6667C23.3334 8.69167 21.1021 6.27083 18.2438 5.90625Z" fill="#FF7759"/>
<path d="M24.1063 20.1687C25.4042 21.3791 26.25 22.8958 26.25 24.7916V29.1666H29.1667V24.7916C29.1667 22.677 26.8479 21.1312 24.1063 20.1687Z" fill="#FF7759"/>
</g>
<defs>
<clipPath id="clip0_7_193">
<rect width="35" height="35" fill="white"/>
</clipPath>
</defs>
</svg>
